<mxfile host="app.diagrams.net" modified="2022-07-19T09:21:30.031Z" agent="5.0 (Windows NT 10.0; Win64; x64) AppleWebKit/537.36 (KHTML, like Gecko) Chrome/103.0.0.0 Safari/537.36" etag="ceWGtbXhJOPxvDp2z04F" version="20.0.3" type="github">
  <diagram id="SvkTFuCHWfxZ8OQRrp9v" name="Page-1">
    <mxGraphModel dx="2249" dy="794" grid="1" gridSize="10" guides="1" tooltips="1" connect="1" arrows="1" fold="1" page="1" pageScale="1" pageWidth="827" pageHeight="1169" math="0" shadow="0">
      <root>
        <mxCell id="0" />
        <mxCell id="1" parent="0" />
        <mxCell id="7WbcqOHWdYjn00EHxOvr-47" value="" style="rounded=0;whiteSpace=wrap;html=1;" vertex="1" parent="1">
          <mxGeometry x="-540" y="190" width="1420" height="840" as="geometry" />
        </mxCell>
        <mxCell id="7WbcqOHWdYjn00EHxOvr-45" value="" style="rounded=1;whiteSpace=wrap;html=1;" vertex="1" parent="1">
          <mxGeometry x="-475" y="210" width="180" height="230" as="geometry" />
        </mxCell>
        <mxCell id="7WbcqOHWdYjn00EHxOvr-13" style="edgeStyle=orthogonalEdgeStyle;rounded=0;orthogonalLoop=1;jettySize=auto;html=1;entryX=0;entryY=0.5;entryDx=0;entryDy=0;" edge="1" parent="1" source="7WbcqOHWdYjn00EHxOvr-2" target="7WbcqOHWdYjn00EHxOvr-11">
          <mxGeometry relative="1" as="geometry" />
        </mxCell>
        <mxCell id="7WbcqOHWdYjn00EHxOvr-14" value="提交代码、自动化测试" style="edgeLabel;html=1;align=center;verticalAlign=middle;resizable=0;points=[];" vertex="1" connectable="0" parent="7WbcqOHWdYjn00EHxOvr-13">
          <mxGeometry x="0.2818" y="2" relative="1" as="geometry">
            <mxPoint x="-41" y="-8" as="offset" />
          </mxGeometry>
        </mxCell>
        <mxCell id="7WbcqOHWdYjn00EHxOvr-2" value="ZWSim开发人员" style="shape=umlActor;verticalLabelPosition=bottom;verticalAlign=top;html=1;outlineConnect=0;" vertex="1" parent="1">
          <mxGeometry x="-130" y="270" width="30" height="60" as="geometry" />
        </mxCell>
        <mxCell id="7WbcqOHWdYjn00EHxOvr-26" style="edgeStyle=orthogonalEdgeStyle;rounded=0;orthogonalLoop=1;jettySize=auto;html=1;entryX=0;entryY=0.5;entryDx=0;entryDy=0;" edge="1" parent="1" source="7WbcqOHWdYjn00EHxOvr-5" target="7WbcqOHWdYjn00EHxOvr-25">
          <mxGeometry relative="1" as="geometry" />
        </mxCell>
        <mxCell id="7WbcqOHWdYjn00EHxOvr-5" value="Solver_Structural开发人员" style="shape=umlActor;verticalLabelPosition=bottom;verticalAlign=top;html=1;outlineConnect=0;" vertex="1" parent="1">
          <mxGeometry x="-400" y="525" width="30" height="60" as="geometry" />
        </mxCell>
        <mxCell id="7WbcqOHWdYjn00EHxOvr-15" style="edgeStyle=orthogonalEdgeStyle;rounded=0;orthogonalLoop=1;jettySize=auto;html=1;entryX=0;entryY=0.5;entryDx=0;entryDy=0;" edge="1" parent="1" source="7WbcqOHWdYjn00EHxOvr-11" target="7WbcqOHWdYjn00EHxOvr-12">
          <mxGeometry relative="1" as="geometry" />
        </mxCell>
        <mxCell id="7WbcqOHWdYjn00EHxOvr-39" value="编译成功" style="edgeLabel;html=1;align=center;verticalAlign=middle;resizable=0;points=[];" vertex="1" connectable="0" parent="7WbcqOHWdYjn00EHxOvr-15">
          <mxGeometry x="-0.2" y="-2" relative="1" as="geometry">
            <mxPoint x="8" y="-2" as="offset" />
          </mxGeometry>
        </mxCell>
        <mxCell id="7WbcqOHWdYjn00EHxOvr-20" style="edgeStyle=orthogonalEdgeStyle;rounded=0;orthogonalLoop=1;jettySize=auto;html=1;entryX=0;entryY=0.3333333333333333;entryDx=0;entryDy=0;entryPerimeter=0;" edge="1" parent="1" source="7WbcqOHWdYjn00EHxOvr-11" target="7WbcqOHWdYjn00EHxOvr-19">
          <mxGeometry relative="1" as="geometry">
            <Array as="points">
              <mxPoint x="180" y="480" />
            </Array>
          </mxGeometry>
        </mxCell>
        <mxCell id="7WbcqOHWdYjn00EHxOvr-22" value="编译、跑宏通过" style="edgeLabel;html=1;align=center;verticalAlign=middle;resizable=0;points=[];" vertex="1" connectable="0" parent="7WbcqOHWdYjn00EHxOvr-20">
          <mxGeometry x="-0.807" relative="1" as="geometry">
            <mxPoint as="offset" />
          </mxGeometry>
        </mxCell>
        <mxCell id="7WbcqOHWdYjn00EHxOvr-24" value="参与集成" style="edgeLabel;html=1;align=center;verticalAlign=middle;resizable=0;points=[];" vertex="1" connectable="0" parent="7WbcqOHWdYjn00EHxOvr-20">
          <mxGeometry x="0.7649" y="1" relative="1" as="geometry">
            <mxPoint as="offset" />
          </mxGeometry>
        </mxCell>
        <mxCell id="7WbcqOHWdYjn00EHxOvr-11" value="QMS &amp;amp; QTS" style="rounded=1;whiteSpace=wrap;html=1;fillColor=#f8cecc;strokeColor=#b85450;" vertex="1" parent="1">
          <mxGeometry x="120" y="270" width="120" height="60" as="geometry" />
        </mxCell>
        <mxCell id="7WbcqOHWdYjn00EHxOvr-21" style="edgeStyle=orthogonalEdgeStyle;rounded=0;orthogonalLoop=1;jettySize=auto;html=1;" edge="1" parent="1" source="7WbcqOHWdYjn00EHxOvr-12">
          <mxGeometry relative="1" as="geometry">
            <mxPoint x="430" y="480" as="targetPoint" />
          </mxGeometry>
        </mxCell>
        <mxCell id="7WbcqOHWdYjn00EHxOvr-23" value="代码审查通过" style="edgeLabel;html=1;align=center;verticalAlign=middle;resizable=0;points=[];" vertex="1" connectable="0" parent="7WbcqOHWdYjn00EHxOvr-21">
          <mxGeometry x="-0.2933" y="1" relative="1" as="geometry">
            <mxPoint as="offset" />
          </mxGeometry>
        </mxCell>
        <mxCell id="7WbcqOHWdYjn00EHxOvr-12" value="Review Board" style="rounded=1;whiteSpace=wrap;html=1;fillColor=#dae8fc;strokeColor=#6c8ebf;" vertex="1" parent="1">
          <mxGeometry x="370" y="270" width="120" height="60" as="geometry" />
        </mxCell>
        <mxCell id="7WbcqOHWdYjn00EHxOvr-18" value="" style="edgeStyle=orthogonalEdgeStyle;rounded=0;orthogonalLoop=1;jettySize=auto;html=1;" edge="1" parent="1" source="7WbcqOHWdYjn00EHxOvr-17" target="7WbcqOHWdYjn00EHxOvr-12">
          <mxGeometry relative="1" as="geometry" />
        </mxCell>
        <mxCell id="7WbcqOHWdYjn00EHxOvr-38" value="审查代码" style="edgeLabel;html=1;align=center;verticalAlign=middle;resizable=0;points=[];" vertex="1" connectable="0" parent="7WbcqOHWdYjn00EHxOvr-18">
          <mxGeometry x="0.2364" y="1" relative="1" as="geometry">
            <mxPoint x="8" y="-1" as="offset" />
          </mxGeometry>
        </mxCell>
        <mxCell id="7WbcqOHWdYjn00EHxOvr-17" value="代码审查人" style="shape=umlActor;verticalLabelPosition=bottom;verticalAlign=top;html=1;outlineConnect=0;" vertex="1" parent="1">
          <mxGeometry x="600" y="270" width="30" height="60" as="geometry" />
        </mxCell>
        <mxCell id="7WbcqOHWdYjn00EHxOvr-51" style="edgeStyle=orthogonalEdgeStyle;rounded=0;orthogonalLoop=1;jettySize=auto;html=1;entryX=0;entryY=0.5;entryDx=0;entryDy=0;exitX=1;exitY=0.3333333333333333;exitDx=0;exitDy=0;exitPerimeter=0;" edge="1" parent="1" source="7WbcqOHWdYjn00EHxOvr-19" target="7WbcqOHWdYjn00EHxOvr-49">
          <mxGeometry relative="1" as="geometry" />
        </mxCell>
        <mxCell id="7WbcqOHWdYjn00EHxOvr-19" value="集成人员" style="shape=umlActor;verticalLabelPosition=bottom;verticalAlign=top;html=1;outlineConnect=0;" vertex="1" parent="1">
          <mxGeometry x="600" y="460" width="30" height="60" as="geometry" />
        </mxCell>
        <mxCell id="7WbcqOHWdYjn00EHxOvr-27" style="edgeStyle=orthogonalEdgeStyle;rounded=0;orthogonalLoop=1;jettySize=auto;html=1;" edge="1" parent="1">
          <mxGeometry relative="1" as="geometry">
            <mxPoint y="300" as="targetPoint" />
            <mxPoint x="-80" y="550" as="sourcePoint" />
          </mxGeometry>
        </mxCell>
        <mxCell id="7WbcqOHWdYjn00EHxOvr-34" value="PPC仓库" style="edgeLabel;html=1;align=center;verticalAlign=middle;resizable=0;points=[];" vertex="1" connectable="0" parent="7WbcqOHWdYjn00EHxOvr-27">
          <mxGeometry x="0.4848" y="1" relative="1" as="geometry">
            <mxPoint as="offset" />
          </mxGeometry>
        </mxCell>
        <mxCell id="7WbcqOHWdYjn00EHxOvr-25" value="创建结构求解器仓库分支；创建ZWSim仓库分支；本地编译所有仓库，并在3rd提交编译文件" style="rounded=1;whiteSpace=wrap;html=1;perimeterSpacing=7;verticalAlign=middle;spacing=13;fillColor=#d5e8d4;strokeColor=#82b366;" vertex="1" parent="1">
          <mxGeometry x="-240" y="500" width="160" height="110" as="geometry" />
        </mxCell>
        <mxCell id="7WbcqOHWdYjn00EHxOvr-33" style="edgeStyle=orthogonalEdgeStyle;rounded=0;orthogonalLoop=1;jettySize=auto;html=1;entryX=0;entryY=0.5;entryDx=0;entryDy=0;" edge="1" parent="1" source="7WbcqOHWdYjn00EHxOvr-31" target="7WbcqOHWdYjn00EHxOvr-32">
          <mxGeometry relative="1" as="geometry" />
        </mxCell>
        <mxCell id="7WbcqOHWdYjn00EHxOvr-31" value="ZW3D开发人员" style="shape=umlActor;verticalLabelPosition=bottom;verticalAlign=top;html=1;outlineConnect=0;" vertex="1" parent="1">
          <mxGeometry x="-400" y="715" width="30" height="60" as="geometry" />
        </mxCell>
        <mxCell id="7WbcqOHWdYjn00EHxOvr-35" style="edgeStyle=orthogonalEdgeStyle;rounded=0;orthogonalLoop=1;jettySize=auto;html=1;exitX=0.954;exitY=0.51;exitDx=0;exitDy=0;exitPerimeter=0;" edge="1" parent="1" source="7WbcqOHWdYjn00EHxOvr-32">
          <mxGeometry relative="1" as="geometry">
            <mxPoint y="550" as="targetPoint" />
          </mxGeometry>
        </mxCell>
        <mxCell id="7WbcqOHWdYjn00EHxOvr-32" value="在对应仓库提交分支；在ZWSim仓库创建同名分支，提交更改；在三方库提交编译文件" style="rounded=1;whiteSpace=wrap;html=1;perimeterSpacing=7;spacing=13;fillColor=#d5e8d4;strokeColor=#82b366;" vertex="1" parent="1">
          <mxGeometry x="-240" y="700" width="160" height="90" as="geometry" />
        </mxCell>
        <mxCell id="7WbcqOHWdYjn00EHxOvr-41" style="edgeStyle=orthogonalEdgeStyle;rounded=0;orthogonalLoop=1;jettySize=auto;html=1;entryX=0;entryY=0.5;entryDx=0;entryDy=0;" edge="1" parent="1" source="7WbcqOHWdYjn00EHxOvr-36" target="7WbcqOHWdYjn00EHxOvr-40">
          <mxGeometry relative="1" as="geometry" />
        </mxCell>
        <mxCell id="7WbcqOHWdYjn00EHxOvr-36" value="Solver_Matrix开发人员" style="shape=umlActor;verticalLabelPosition=bottom;verticalAlign=top;html=1;outlineConnect=0;" vertex="1" parent="1">
          <mxGeometry x="-400" y="880" width="30" height="60" as="geometry" />
        </mxCell>
        <mxCell id="7WbcqOHWdYjn00EHxOvr-42" style="edgeStyle=orthogonalEdgeStyle;rounded=0;orthogonalLoop=1;jettySize=auto;html=1;" edge="1" parent="1" source="7WbcqOHWdYjn00EHxOvr-40">
          <mxGeometry relative="1" as="geometry">
            <mxPoint x="620" y="540" as="targetPoint" />
          </mxGeometry>
        </mxCell>
        <mxCell id="7WbcqOHWdYjn00EHxOvr-48" value="参与集成" style="edgeLabel;html=1;align=center;verticalAlign=middle;resizable=0;points=[];" vertex="1" connectable="0" parent="7WbcqOHWdYjn00EHxOvr-42">
          <mxGeometry x="0.8916" y="2" relative="1" as="geometry">
            <mxPoint as="offset" />
          </mxGeometry>
        </mxCell>
        <mxCell id="7WbcqOHWdYjn00EHxOvr-40" value="只在矩阵求解器仓库提交分支，后续编译文件上传工作在每周集成时进行。因此该仓库内代码在集成前不跑宏。" style="rounded=1;whiteSpace=wrap;html=1;spacing=13;fillColor=#d5e8d4;strokeColor=#82b366;" vertex="1" parent="1">
          <mxGeometry x="-240" y="850" width="160" height="120" as="geometry" />
        </mxCell>
        <mxCell id="7WbcqOHWdYjn00EHxOvr-43" value="电磁开发人员" style="shape=umlActor;verticalLabelPosition=bottom;verticalAlign=top;html=1;outlineConnect=0;" vertex="1" parent="1">
          <mxGeometry x="-398" y="290" width="30" height="60" as="geometry" />
        </mxCell>
        <mxCell id="7WbcqOHWdYjn00EHxOvr-46" value="没有仓库权限，不知道" style="text;html=1;strokeColor=none;fillColor=none;align=center;verticalAlign=middle;whiteSpace=wrap;rounded=0;" vertex="1" parent="1">
          <mxGeometry x="-415" y="230" width="70" height="30" as="geometry" />
        </mxCell>
        <mxCell id="7WbcqOHWdYjn00EHxOvr-49" value="合并分支，在对应仓库提交编译文件，输出功能验收版本" style="rounded=1;whiteSpace=wrap;html=1;fillColor=#fff2cc;strokeColor=#d6b656;spacing=12;" vertex="1" parent="1">
          <mxGeometry x="710" y="435" width="130" height="90" as="geometry" />
        </mxCell>
      </root>
    </mxGraphModel>
  </diagram>
</mxfile>
